<svg xmlns="http://www.w3.org/2000/svg" width="256" height="256" viewBox="0 0 100 100"><rect width="100" height="100" rx="50" fill="#ff3c38"></rect><path d="M55.30 64.60L55.30 64.60Q54.50 65.30 53.10 65.80Q51.70 66.30 49.90 66.30L49.90 66.30Q47.80 66.30 46.25 65.65Q44.70 65 44.10 63.60L44.10 63.60Q39.50 53 36.15 44.80Q32.80 36.60 30.80 31.10L30.80 31.10L30.30 31.10Q30.00 38.20 29.75 44.15Q29.50 50.10 29.20 55.80Q28.90 61.50 28.55 67.40Q28.20 73.30 27.80 80.10L27.80 80.10Q27.00 80.40 25.75 80.65Q24.50 80.90 23.10 80.90L23.10 80.90Q17.70 80.90 17.70 76.50L17.70 76.50Q17.70 75.20 17.85 71.90Q18.00 68.60 18.25 64.05Q18.50 59.50 18.85 54Q19.20 48.50 19.60 42.85Q20.00 37.20 20.40 31.75Q20.80 26.30 21.20 21.70L21.20 21.70Q22.00 20.90 23.85 20Q25.70 19.10 28.40 19.10L28.40 19.10Q31.60 19.10 33.50 20.25Q35.40 21.40 36.50 23.70L36.50 23.70Q38.10 27.20 39.80 31.25Q41.50 35.30 43.20 39.45Q44.90 43.60 46.50 47.70Q48.10 51.80 49.60 55.40L49.60 55.40L50.10 55.40Q52 50.40 53.95 45.50Q55.90 40.60 57.75 36.10Q59.60 31.60 61.25 27.60Q62.90 23.60 64.30 20.40L64.30 20.40Q65.40 19.90 67 19.50Q68.60 19.10 70.30 19.10L70.30 19.10Q73.60 19.10 75.25 20.10Q76.90 21.10 77.40 23L77.40 23Q77.80 24.80 78.30 28.95Q78.80 33.10 79.30 38.50Q79.80 43.90 80.30 49.95Q80.80 56 81.20 61.65Q81.60 67.30 81.90 72.05Q82.20 76.80 82.30 79.50L82.30 79.50Q81.20 80.20 79.95 80.55Q78.70 80.90 77 80.90L77 80.90Q74.90 80.90 73.35 80Q71.80 79.10 71.60 76.60L71.60 76.60Q71.20 69.80 70.85 63.20Q70.50 56.60 70.20 50.70Q69.90 44.80 69.65 39.80Q69.40 34.80 69.20 31.30L69.20 31.30L68.80 31.30Q66.90 36.40 63.65 44.30Q60.40 52.20 55.30 64.60Z" fill="#fff"></path></svg>