<?xml version="1.0" standalone="no"?>
<!DOCTYPE svg PUBLIC "-//W3C//DTD SVG 20010904//EN"
 "http://www.w3.org/TR/2001/REC-SVG-20010904/DTD/svg10.dtd">
<svg version="1.0" xmlns="http://www.w3.org/2000/svg"
 width="700.000000pt" height="700.000000pt" viewBox="0 0 700.000000 700.000000"
 preserveAspectRatio="xMidYMid meet">
<metadata>
Created by potrace 1.14, written by Peter Selinger 2001-2017
</metadata>
<g transform="translate(0.000000,700.000000) scale(0.100000,-0.100000)"
fill="#000000" stroke="none">
<path d="M3205 6993 c-27 -2 -126 -15 -220 -28 -611 -88 -1188 -339 -1685
-733 -135 -107 -449 -426 -554 -562 -434 -563 -673 -1169 -737 -1870 -15 -161
-6 -606 15 -755 92 -651 321 -1194 722 -1715 114 -149 435 -470 584 -584 525
-404 1049 -624 1725 -723 173 -25 716 -25 894 0 661 95 1199 321 1721 723 133
102 465 429 560 552 423 544 646 1069 747 1757 25 173 25 716 0 894 -96 668
-339 1241 -745 1751 -100 125 -400 426 -528 528 -547 437 -1188 696 -1889 762
-101 9 -493 11 -610 3z m-1000 -1359 c113 -30 208 -92 275 -179 76 -99 290
-595 735 -1705 231 -578 252 -625 274 -625 21 0 32 21 117 243 179 466 595
1491 811 1999 l87 203 55 21 c124 46 220 63 366 63 205 1 304 -26 391 -106 93
-86 116 -177 174 -688 89 -793 243 -2752 262 -3340 l3 -85 -63 -31 c-202 -100
-494 -79 -604 44 -62 69 -66 94 -98 662 -26 456 -140 2643 -140 2684 0 9 -8
16 -19 16 -14 0 -29 -29 -71 -137 -150 -391 -869 -2149 -896 -2190 -17 -27
-138 -86 -214 -104 -70 -17 -249 -17 -320 0 -85 21 -156 58 -194 102 -60 71
-661 1501 -916 2182 -49 131 -66 167 -81 167 -23 0 -25 -25 -39 -390 -16 -433
-48 -1123 -70 -1525 -48 -858 -81 -1424 -86 -1472 l-5 -52 -92 -22 c-73 -18
-119 -23 -227 -23 -167 1 -229 20 -301 93 -64 67 -75 109 -72 301 7 438 117
2194 218 3475 23 290 16 264 88 312 111 74 185 105 302 124 73 12 281 2 350
-17z"/>
</g>
</svg>
